<?xml version="1.0" encoding="utf-8"?>
<!-- Generator: Adobe Illustrator 15.0.0, SVG Export Plug-In . SVG Version: 6.00 Build 0)  -->
<!DOCTYPE svg PUBLIC "-//W3C//DTD SVG 1.1//EN" "http://www.w3.org/Graphics/SVG/1.1/DTD/svg11.dtd">
<svg version="1.1" id="Layer_1" xmlns="http://www.w3.org/2000/svg" xmlns:xlink="http://www.w3.org/1999/xlink" x="0px" y="0px"
	 width="150px" height="150px" viewBox="0 0 150 150" enable-background="new 0 0 150 150" xml:space="preserve">
<rect x="0.565" y="-0.5" fill="#CCCCCC" width="148.359" height="149.5"/>
<g>
	<path fill="#FFFFFF" d="M17.583,77.939v-7.378h1.489v7.378H17.583z"/>
	<path fill="#FFFFFF" d="M20.472,77.939v-7.378h2.229l1.339,5.034l1.323-5.034h2.233v7.378h-1.384V72.13l-1.463,5.809h-1.434
		l-1.461-5.809v5.809H20.472z"/>
	<path fill="#FFFFFF" d="M35.729,77.939h-1.621l-0.644-1.677h-2.949l-0.609,1.677h-1.579l2.872-7.378h1.575L35.729,77.939z
		 M32.986,75.02l-1.018-2.737l-0.996,2.737H32.986z"/>
	<path fill="#FFFFFF" d="M39.949,75.227v-1.243h3.212v2.938c-0.312,0.303-0.764,0.567-1.356,0.799
		c-0.592,0.23-1.191,0.344-1.799,0.344c-0.772,0-1.444-0.161-2.018-0.484s-1.005-0.787-1.294-1.39
		c-0.289-0.601-0.431-1.257-0.431-1.964c0-0.769,0.159-1.451,0.481-2.049c0.322-0.596,0.794-1.054,1.415-1.373
		c0.474-0.246,1.062-0.367,1.768-0.367c0.915,0,1.63,0.192,2.145,0.576c0.516,0.383,0.847,0.914,0.995,1.593l-1.48,0.276
		c-0.104-0.363-0.299-0.648-0.586-0.857c-0.286-0.21-0.645-0.315-1.073-0.315c-0.652,0-1.169,0.207-1.553,0.619
		c-0.384,0.414-0.575,1.026-0.575,1.837c0,0.875,0.194,1.532,0.583,1.969c0.389,0.438,0.901,0.658,1.53,0.658
		c0.311,0,0.624-0.062,0.938-0.186c0.314-0.121,0.583-0.27,0.807-0.444v-0.936H39.949z"/>
	<path fill="#FFFFFF" d="M44.535,77.939v-7.378h5.469v1.248h-3.981v1.635h3.705v1.245h-3.705v2.007h4.122v1.244H44.535z"/>
	<path fill="#FFFFFF" d="M54.271,77.939v-7.378h2.39c0.906,0,1.496,0.038,1.771,0.111c0.424,0.112,0.777,0.351,1.062,0.722
		c0.286,0.371,0.429,0.85,0.429,1.438c0,0.453-0.083,0.833-0.247,1.142c-0.166,0.309-0.374,0.551-0.627,0.727
		c-0.253,0.177-0.51,0.293-0.771,0.349c-0.355,0.072-0.871,0.107-1.545,0.107H55.76v2.783H54.271z M55.76,71.809v2.094h0.815
		c0.587,0,0.979-0.039,1.178-0.115c0.198-0.077,0.354-0.198,0.466-0.362c0.112-0.165,0.169-0.355,0.169-0.574
		c0-0.268-0.08-0.49-0.237-0.663c-0.158-0.176-0.356-0.284-0.6-0.328c-0.176-0.034-0.534-0.051-1.071-0.051H55.76z"/>
	<path fill="#FFFFFF" d="M61.185,77.939v-7.318h1.49v6.074h3.704v1.244H61.185z"/>
	<path fill="#FFFFFF" d="M74.091,77.939h-1.62l-0.644-1.677h-2.949l-0.61,1.677h-1.578l2.872-7.378h1.575L74.091,77.939z
		 M71.35,75.02l-1.015-2.737l-0.997,2.737H71.35z"/>
	<path fill="#FFFFFF" d="M79.603,75.227l1.443,0.458c-0.221,0.806-0.589,1.402-1.104,1.794c-0.515,0.39-1.167,0.585-1.96,0.585
		c-0.979,0-1.785-0.333-2.414-1.003c-0.633-0.67-0.947-1.583-0.947-2.745c0-1.228,0.317-2.182,0.951-2.86
		c0.633-0.679,1.468-1.019,2.501-1.019c0.903,0,1.635,0.267,2.199,0.799c0.335,0.316,0.587,0.769,0.754,1.359l-1.473,0.353
		c-0.087-0.383-0.271-0.686-0.547-0.907s-0.613-0.332-1.008-0.332c-0.549,0-0.993,0.197-1.332,0.588
		c-0.342,0.394-0.512,1.029-0.512,1.907c0,0.935,0.168,1.598,0.504,1.993c0.335,0.396,0.772,0.595,1.308,0.595
		c0.396,0,0.736-0.127,1.021-0.379C79.272,76.162,79.478,75.768,79.603,75.227z"/>
	<path fill="#FFFFFF" d="M82.324,77.939v-7.378h5.469v1.248h-3.98v1.635h3.704v1.245h-3.704v2.007h4.122v1.244H82.324z"/>
	<path fill="#FFFFFF" d="M89.204,77.939v-7.378h1.488v2.903h2.919v-2.903H95.1v7.378h-1.488v-3.227h-2.919v3.227H89.204z"/>
	<path fill="#FFFFFF" d="M96.337,74.296c0-0.753,0.114-1.382,0.338-1.892c0.167-0.377,0.397-0.714,0.688-1.011
		c0.289-0.299,0.606-0.521,0.953-0.665c0.459-0.194,0.988-0.292,1.59-0.292c1.086,0,1.956,0.337,2.608,1.011
		c0.653,0.675,0.979,1.612,0.979,2.814c0,1.189-0.324,2.122-0.971,2.795c-0.649,0.672-1.515,1.007-2.598,1.007
		c-1.097,0-1.969-0.333-2.617-1.003C96.662,76.391,96.337,75.47,96.337,74.296z M97.873,74.246c0,0.834,0.193,1.467,0.58,1.899
		c0.384,0.431,0.873,0.647,1.469,0.647c0.594,0,1.079-0.215,1.462-0.643c0.379-0.428,0.57-1.069,0.57-1.924
		c0-0.846-0.185-1.477-0.556-1.893c-0.37-0.415-0.864-0.624-1.477-0.624c-0.616,0-1.109,0.21-1.484,0.631
		C98.061,72.761,97.873,73.396,97.873,74.246z"/>
	<path fill="#FFFFFF" d="M104.697,77.939v-7.318h1.488v6.074h3.703v1.244H104.697z"/>
	<path fill="#FFFFFF" d="M110.945,70.561h2.723c0.614,0,1.081,0.047,1.403,0.142c0.434,0.126,0.805,0.354,1.112,0.679
		c0.31,0.325,0.545,0.723,0.705,1.194c0.162,0.471,0.241,1.053,0.241,1.744c0,0.608-0.074,1.13-0.227,1.571
		c-0.184,0.537-0.447,0.972-0.79,1.303c-0.257,0.252-0.607,0.448-1.047,0.588c-0.327,0.104-0.767,0.158-1.317,0.158h-2.804V70.561z
		 M112.435,71.809v4.887h1.112c0.417,0,0.716-0.022,0.9-0.069c0.243-0.061,0.443-0.163,0.603-0.308s0.289-0.383,0.39-0.712
		c0.1-0.331,0.151-0.781,0.151-1.352c0-0.569-0.052-1.007-0.151-1.313c-0.101-0.305-0.24-0.543-0.423-0.714
		c-0.182-0.17-0.409-0.286-0.689-0.346c-0.207-0.047-0.616-0.072-1.223-0.072H112.435z"/>
	<path fill="#FFFFFF" d="M118.393,77.939v-7.378h5.47v1.248h-3.98v1.635h3.704v1.245h-3.704v2.007h4.122v1.244H118.393z"/>
	<path fill="#FFFFFF" d="M125.272,77.939v-7.378h3.133c0.79,0,1.362,0.067,1.721,0.199c0.356,0.133,0.642,0.368,0.856,0.707
		c0.216,0.339,0.322,0.726,0.322,1.163c0,0.554-0.161,1.01-0.488,1.372c-0.325,0.36-0.811,0.587-1.459,0.682
		c0.323,0.188,0.588,0.394,0.798,0.617c0.211,0.227,0.491,0.624,0.848,1.198l0.901,1.44h-1.782l-1.076-1.606
		c-0.383-0.573-0.645-0.934-0.784-1.083c-0.141-0.149-0.29-0.252-0.45-0.309c-0.156-0.055-0.406-0.083-0.748-0.083h-0.302v3.081
		H125.272z M126.762,73.681h1.102c0.716,0,1.16-0.029,1.34-0.091c0.176-0.061,0.315-0.164,0.416-0.312
		c0.101-0.146,0.15-0.331,0.15-0.552c0-0.249-0.064-0.449-0.198-0.602c-0.132-0.154-0.318-0.25-0.561-0.29
		c-0.121-0.017-0.482-0.026-1.087-0.026h-1.162V73.681z"/>
</g>
</svg>
